<?xml version="1.0" encoding="UTF-8"?>
<svg id="Layer_2" data-name="Layer 2" xmlns="http://www.w3.org/2000/svg" viewBox="0 0 998.09 1417.32">
  <defs>
    <style>
      .cls-1 {
        fill: #56519e;
      }

      .cls-1, .cls-2, .cls-3, .cls-4 {
        stroke-width: 0px;
      }

      .cls-2 {
        fill: #317783;
      }

      .cls-3 {
        fill: #935c96;
      }

      .cls-4 {
        fill: #f1f2f2;
      }
    </style>
  </defs>
  <path class="cls-4" d="M21.29,0h253.57C286.62,0,296.16,9.53,296.16,21.29v1119.93c0,11.76,9.53,21.29,21.29,21.29h659.35c11.76,0,21.29,9.53,21.29,21.29v212.23c0,11.76-9.53,21.29-21.29,21.29H21.29C9.53,1417.32,0,1407.79,0,1396.03V21.29C0,9.53,9.53,0,21.29,0Z"/>
  <path class="cls-2" d="M713,253.98l-281.01,678.85c-1.76,4.25-8.08,2.99-8.08-1.61V34.35c0-9.5,10.11-15.59,18.51-11.15,110.23,58.28,198.27,134.04,268.62,217.87,3.01,3.59,3.75,8.57,1.96,12.9Z"/>
  <path class="cls-3" d="M460.58,985.1l305.72-637.13c4.28-8.92,16.69-9.65,22.02-1.3,58.71,92.02,100.38,188.62,129.93,279.38,1.64,5.02-.07,10.53-4.22,13.79l-447.07,350.39c-3.5,2.74-8.3-1.12-6.38-5.13Z"/>
  <path class="cls-1" d="M970.17,1034.76h-473.32c-4.14,0-5.78-5.35-2.36-7.68l429.55-292.27c7.31-4.97,17.33-1.06,19.37,7.54,32.11,135.38,38.21,243.3,39.37,279.42.23,7.11-5.48,12.99-12.6,12.99Z"/>
</svg>