<?xml version="1.0" encoding="UTF-8"?>
<svg id="Layer_2" data-name="Layer 2" xmlns="http://www.w3.org/2000/svg" viewBox="0 0 1417.32 1417.32">
  <defs>
    <style>
      .cls-1 {
        fill: #56519e;
      }

      .cls-1, .cls-2, .cls-3, .cls-4 {
        stroke-width: 0px;
      }

      .cls-2 {
        fill: #317783;
      }

      .cls-3 {
        fill: #935c96;
      }

      .cls-4 {
        fill: #f1f2f2;
      }
    </style>
  </defs>
  <path class="cls-4" d="M30.23.42h360.09c16.7,0,30.23,9.27,30.23,20.7v998.09c0,11.43,13.54,20.7,30.23,20.7h936.3c16.7,0,30.23,9.27,30.23,20.7v334.85c0,11.43-13.54,20.7-30.23,20.7H30.23C13.54,1416.15,0,1406.88,0,1395.45V21.12C0,9.69,13.54.42,30.23.42Z"/>
  <path class="cls-2" d="M969.91,233.67l-445.87,629.32c-2.79,3.94-12.83,2.77-12.83-1.49V30.07c0-8.81,16.05-14.45,29.37-10.33,174.89,54.03,314.6,124.26,426.22,201.97,4.78,3.33,5.95,7.94,3.11,11.96Z"/>
  <path class="cls-3" d="M569.41,911.44l485.09-590.64c6.79-8.27,26.49-8.94,34.93-1.21,93.16,85.31,159.27,174.86,206.16,258.99,2.6,4.66-.11,9.76-6.7,12.78l-709.35,324.83c-5.55,2.54-13.18-1.04-10.12-4.75Z"/>
  <path class="cls-1" d="M1377.96,957.48h-751c-6.56,0-9.18-4.96-3.75-7.12l681.55-270.95c11.6-4.61,27.49-.99,30.73,6.99,50.95,125.5,60.62,225.54,62.46,259.03.36,6.6-8.7,12.04-19.99,12.04Z"/>
</svg>